:version 1.10
:name ASF
:units
  mass 1
  length 1
  angle deg
:documentation
  ASF file generated by Kaydara
:root
  axis xyz
  order  tx ty tz rx ry rz
  position 0 0 0
  orientation 0 0 0
:bonedata
  begin
    id 1
    name RightUpLegDummy
    direction -0.718183 -0.695806 0.00816078
    length 4.904
    axis 0 0 0 xyz
  end
  begin
    id 2
    name RightUpLeg
    direction 3.53989e-006 -0.995788 0.0916897
    length 17.4976
    axis -3.49089 -0.000906621 0.000287158 xyz
    dof rx ry rz
  end
  begin
    id 3
    name RightLeg
    direction 0.00371093 -0.995096 -0.0988418
    length 16.5821
    axis 3.68512 0.0193738 -0.131023 xyz
    dof rx ry rz
  end
  begin
    id 4
    name RightFoot
    direction 0.000791514 -0.46099 0.887405
    length 3.77069
    axis 4.84075e-005 -0.120479 -0.188788 xyz
    dof rx ry rz
  end
  begin
    id 5
    name RightToes
    direction 0.00124746 -0.014064 0.9999
    length 3.85082
    axis 0.00048216 0.542163 -0.142577 xyz
    dof rx ry rz
  end
  begin
    id 6
    name SpineDummy
    direction 8.3039e-015 1 4.57515e-016
    length 4.6813
    axis 0 0 0 xyz
  end
  begin
    id 7
    name Spine
    direction -4.63632e-008 0.999988 0.00495137
    length 10.1015
    axis -0.00138897 0.000121419 3.25764e-006 xyz
    dof rx ry rz
  end
  begin
    id 8
    name Spine1
    direction 0 0 0
    length 0
    axis -0.00138896 0.000121452 2.39764e-006 xyz
    dof rx ry rz
  end
  begin
    id 9
    name HEadDummy
    direction -3.91456e-008 0.999999 0.00127422
    length 3.43865
    axis -0.00138896 0.000121452 2.39764e-006 xyz
  end
  begin
    id 10
    name HEad
    direction -0.0222688 0.980941 0.193023
    length 5.12695
    axis -0.00138895 0.000121452 2.39764e-006 xyz
    dof rx ry rz
  end
  begin
    id 11
    name LeftShoulder1Dummy
    direction 0.998891 -0.0402508 -0.0244456
    length 3.5433
    axis -0.00138896 0.000121452 2.39764e-006 xyz
  end
  begin
    id 12
    name LeftShoulder1
    direction 0.99951 -0.000327743 0.0313091
    length 4.05031
    axis -0.00138896 0.000121452 2.39764e-006 xyz
    dof rx ry rz
  end
  begin
    id 13
    name LeftArm
    direction 0.998561 -0.00100054 -0.0536182
    length 10.3537
    axis -23.1894 0.134784 0.96751 xyz
    dof rx ry rz
  end
  begin
    id 14
    name LeftForeArm
    direction 0.998903 0.00866434 0.046012
    length 8.70632
    axis -9.91835 -0.06569 -0.177792 xyz
    dof rx ry rz
  end
  begin
    id 15
    name LeftHand
    direction 0.992938 -0.0411636 0.11126
    length 5.32135
    axis -0.00960227 -0.00340091 0.185174 xyz
    dof rx ry rz
  end
  begin
    id 16
    name RightShoulderDummy
    direction -0.998891 -0.0402509 -0.0244414
    length 3.5433
    axis -0.00138896 0.000121452 2.39764e-006 xyz
  end
  begin
    id 17
    name RightShoulder
    direction -0.99951 -0.000327827 0.0313133
    length 4.05031
    axis 0.215806 0.000203644 -0.00680151 xyz
    dof rx ry rz
  end
  begin
    id 18
    name RightArm
    direction -0.998573 -0.000999583 -0.053403
    length 10.3947
    axis -23.2009 -0.134239 -0.9641 xyz
    dof rx ry rz
  end
  begin
    id 19
    name RightForeArm
    direction -0.998898 0.00868026 0.0461306
    length 8.68355
    axis -9.92322 0.0658061 0.178869 xyz
    dof rx ry rz
  end
  begin
    id 20
    name RightHand
    direction -0.992843 -0.0414603 0.112003
    length 5.28593
    axis -0.00960634 0.00330671 -0.185226 xyz
    dof rx ry rz
  end
  begin
    id 21
    name LeftUpLegDummy
    direction 0.718183 -0.695806 0.00816078
    length 4.904
    axis 0 0 0 xyz
  end
  begin
    id 22
    name LeftUpLeg
    direction -6.8115e-006 -0.995793 0.0916336
    length 17.4976
    axis -3.48766 0.00143441 -0.000523914 xyz
    dof rx ry rz
  end
  begin
    id 23
    name LeftLeg
    direction -0.00601357 -0.995091 -0.0987824
    length 16.5821
    axis 3.68177 -0.00654038 -0.00028478 xyz
    dof rx ry rz
  end
  begin
    id 24
    name LeftFoot
    direction -0.00417578 -0.460984 0.887399
    length 3.77069
    axis 1.87232e-006 4.66002e-005 -8.1837e-006 xyz
    dof rx ry rz
  end
  begin
    id 25
    name LeftToes
    direction 0.00818058 -0.00485161 0.999955
    length 3.85048
    axis 1.06246e-005 4.65855e-005 -8.18502e-006 xyz
    dof rx ry rz
  end
:hierarchy
  begin
    root RightUpLegDummy SpineDummy LeftUpLegDummy
    RightUpLegDummy RightUpLeg
    RightUpLeg RightLeg
    RightLeg RightFoot
    RightFoot RightToes
    SpineDummy Spine
    Spine Spine1
    Spine1 HEadDummy LeftShoulder1Dummy RightShoulderDummy
    HEadDummy HEad
    LeftShoulder1Dummy LeftShoulder1
    LeftShoulder1 LeftArm
    LeftArm LeftForeArm
    LeftForeArm LeftHand
    RightShoulderDummy RightShoulder
    RightShoulder RightArm
    RightArm RightForeArm
    RightForeArm RightHand
    LeftUpLegDummy LeftUpLeg
    LeftUpLeg LeftLeg
    LeftLeg LeftFoot
    LeftFoot LeftToes
  end

:SAMPLES-PER-SECOND 30
:FRAME-RANGE 1-1086
:FULLY-SPECIFIED
:DEGREES
34
root  54.4025 38.135 -104.13 178.296 -63.4952 -170.161
RightUpLeg  -28.6172 1.84156 0.53992
RightLeg  3.16136 -14.7339 0.195355
RightFoot  3.49016 -0.485926 3.91467
RightToes  1.21801e-010 1.2921e-014 -6.02303e-014
Spine  -8.17319 -6.98446 -1.0712
Spine1  11.6998 -9.2372 5.91835
HEad  15.7723 4.50939 4.10356
LeftShoulder1  2.05004 -4.17666 -21.282
LeftArm  -4.56713 0.772267 -54.5204
LeftForeArm  31.2735 4.95695 -12.1357
LeftHand  -0.039493 4.86419 3.67508
RightShoulder  0.532051 -1.88491 31.2328
RightArm  -28.9961 -13.3839 42.9261
RightForeArm  65.8464 -5.22891 2.12015
RightHand  0.124192 -6.48784 -15.0117
LeftUpLeg  12.65 -0.0301588 4.68092
LeftLeg  15.1494 0.554654 1.67358
LeftFoot  -18.8812 -0.682991 -12.0415
LeftToes  3.79492e-011 -8.60219e-011 1.56273e-011
35
root  53.1829 38.2697 -105.18 176.438 -63.361 -168.01
RightUpLeg  -28.5853 1.99007 1.7533
RightLeg  7.31858 -14.2879 -0.279486
RightFoot  4.87046 -0.631714 4.66668
RightToes  1.21801e-010 1.2921e-014 -6.02303e-014
Spine  -8.93249 -6.58411 1.06073
Spine1  12.663 -9.03962 5.93244
HEad  16.7404 4.17632 2.90538
LeftShoulder1  1.95415 -3.78703 -21.4438
LeftArm  -5.21169 1.00237 -54.6951
LeftForeArm  30.5884 4.34687 -11.8419
LeftHand  -0.0423195 4.79812 3.9327
RightShoulder  0.668048 -1.48908 30.6347
RightArm  -30.5718 -14.6572 43.1377
RightForeArm  67.6189 -5.00952 1.21332
RightHand  0.0576678 -5.90934 -16.2454
LeftUpLeg  12.5452 -2.1394 6.46176
LeftLeg  19.0613 1.38579 0.864134
LeftFoot  -14.0949 -0.31651 -16.5647
LeftToes  3.79492e-011 -8.60219e-011 1.56273e-011
36
root  51.9901 38.406 -106.19 174.32 -62.7683 -165.549
RightUpLeg  -27.9283 0.580288 3.61312
RightLeg  10.4645 -12.2887 0.743813
RightFoot  4.49013 -0.57334 4.34209
RightToes  1.21801e-010 1.2921e-014 -6.02303e-014
Spine  -8.76945 -6.08984 4.23979
Spine1  12.2756 -8.37702 5.24137
HEad  18.8353 3.69336 2.06541
LeftShoulder1  1.88654 -3.56689 -21.335
LeftArm  -5.85761 2.59733 -54.8145
LeftForeArm  29.566 3.43211 -11.6167
LeftHand  -0.0465799 4.67328 4.05597
RightShoulder  0.717435 -1.34801 30.5298
RightArm  -31.2218 -15.0785 42.6404
RightForeArm  68.9424 -4.87734 0.731583
RightHand  0.0576219 -5.93798 -15.5635
LeftUpLeg  9.76607 -1.74304 8.96395
LeftLeg  27.2301 0.432507 0.583206
LeftFoot  -7.09746 0.799137 -20.241
LeftToes  3.79492e-011 -8.60219e-011 1.56273e-011
37
root  50.952 38.5251 -107.182 173.053 -62.8936 -164.318
RightUpLeg  -26.93 1.42927 4.87981
RightLeg  13.1963 -12.6718 -0.318938
RightFoot  3.3968 -0.469279 3.80619
RightToes  1.21801e-010 1.2921e-014 -6.02303e-014
Spine  -8.05447 -5.95841 5.67232
Spine1  12.04 -8.13803 5.61718
HEad  21.1 2.9401 2.36361
LeftShoulder1  1.84159 -3.56653 -20.6377
LeftArm  -6.41359 4.59276 -55.164
LeftForeArm  28.8686 2.56107 -11.4442
LeftHand  -0.055335 4.37807 4.04102
RightShoulder  0.663405 -1.49547 30.5028
RightArm  -31.4686 -14.9248 42.6565
RightForeArm  69.785 -4.81223 0.539956
RightHand  0.0940734 -6.31094 -14.1764
LeftUpLeg  4.50488 -2.10369 10.738
LeftLeg  38.1411 -0.250951 0.159596
LeftFoot  2.40847 2.41156 -19.9472
LeftToes  3.79492e-011 -8.60219e-011 1.56273e-011
38
root  49.9198 38.5783 -108.011 171.741 -62.064 -163.104
RightUpLeg  -25.8329 1.58851 6.50644
RightLeg  15.7561 -11.8447 -0.693106
RightFoot  1.39197 -0.232621 2.16902
RightToes  1.21801e-010 1.2921e-014 -6.02303e-014
Spine  -7.23505 -5.49095 8.26163
Spine1  11.8974 -7.33491 4.88048
HEad  22.7036 2.50677 2.69022
LeftShoulder1  1.78267 -3.36517 -20.5573
LeftArm  -6.31004 5.7061 -55.0233
LeftForeArm  28.8075 2.04308 -11.5018
LeftHand  -0.0564573 4.33882 4.03465
RightShoulder  0.724812 -1.31084 30.2131
RightArm  -31.165 -14.1386 43.0726
RightForeArm  69.4121 -4.8622 0.748806
RightHand  0.108485 -6.41806 -14.3354
LeftUpLeg  -1.43632 -2.23036 11.7144
LeftLeg  48.3253 0.125402 0.578534
LeftFoot  13.9725 3.4738 -15.7707
LeftToes  3.79492e-011 -8.60219e-011 1.56273e-011
39
root  48.8321 38.7162 -108.881 172.055 -60.8748 -163.989
RightUpLeg  -23.6113 0.525058 7.30662
RightLeg  17.066 -9.62956 -0.0549737
RightFoot  -1.17715 -0.123944 1.3029
RightToes  1.21801e-010 1.2921e-014 -6.02303e-014
Spine  -6.7149 -4.80128 9.42664
Spine1  11.9185 -6.26809 4.05862
HEad  24.2805 1.84543 3.05368
LeftShoulder1  1.73539 -3.11817 -20.8681
LeftArm  -6.00311 6.39139 -54.4361
LeftForeArm  29.4745 1.84641 -11.628
LeftHand  -0.0551733 4.36414 3.96801
RightShoulder  0.802803 -1.08589 30.0742
RightArm  -30.3082 -12.7224 43.4714
RightForeArm  68.5241 -4.98477 1.26999
RightHand  0.0834697 -6.18267 -14.7656
LeftUpLeg  -6.39482 -1.93085 11.5699
LeftLeg  55.8016 0.365796 1.08225
LeftFoot  17.4912 3.68854 -14.7065
LeftToes  3.79492e-011 -8.60219e-011 1.56273e-011
40
root  47.771 38.8732 -109.826 173 -59.727 -165.786
RightUpLeg  -21.049 0.0638602 7.67628
RightLeg  18.1454 -7.89543 -0.0324323
RightFoot  -3.7463 -0.0874032 0.932607
RightToes  1.21801e-010 1.2921e-014 -6.02303e-014
Spine  -5.98005 -4.27461 8.59716
Spine1  11.5502 -5.67092 4.79586
HEad  26.2741 1.54752 3.24479
LeftShoulder1  1.54158 -2.29639 -21.4015
LeftArm  -6.11193 7.52885 -54.0766
LeftForeArm  30.237 1.78351 -11.618
LeftHand  -0.0334784 5.12755 4.50971
RightShoulder  0.975481 -0.555498 29.4186
RightArm  -28.773 -11.7571 44.1973
RightForeArm  67.4642 -5.18672 2.22772
RightHand  0.0946964 -6.26261 -14.9091
LeftUpLeg  -10.6904 -1.38543 11.02
LeftLeg  60.5295 -0.148476 0.286947
LeftFoot  11.11 2.61301 -13.4598
LeftToes  3.79492e-011 -8.60219e-011 1.56273e-011
41
root  46.6711 39.011 -110.717 174.163 -58.3678 -167.796
RightUpLeg  -18.1683 -0.433438 7.61278
RightLeg  18.5359 -6.01381 0.189121
RightFoot  -6.12605 -0.0586025 0.373612
RightToes  1.21801e-010 1.2921e-014 -6.02303e-014
Spine  -5.1854 -3.71653 8.30264
Spine1  10.8072 -4.83033 4.41773
HEad  28.203 1.0667 3.67257
LeftShoulder1  1.38984 -1.72134 -21.5363
LeftArm  -6.11528 9.00223 -53.4685
LeftForeArm  30.5334 1.70279 -11.6242
LeftHand  -0.0356421 5.05201 4.29358
RightShoulder  1.04904 -0.330504 29.2228
RightArm  -25.8547 -9.85885 44.4312
RightForeArm  65.3482 -5.52774 3.79598
RightHand  0.0922992 -6.21975 -15.2684
LeftUpLeg  -14.7214 -0.349581 10.1272
LeftLeg  62.2683 0.221686 1.06467
LeftFoot  6.37783 1.69071 -11.0701
LeftToes  3.79492e-011 -8.60219e-011 1.56273e-011
42
root  45.5801 39.0956 -111.549 175.524 -56.9202 -169.81
RightUpLeg  -15.7316 -1.23785 7.28582
RightLeg  19.2271 -3.61359 0.516421
RightFoot  -8.47134 -0.0516617 -0.229395
RightToes  1.21801e-010 1.2921e-014 -6.02303e-014
Spine  -4.58904 -3.1236 8.40392
Spine1  10.2252 -3.89713 3.40571
HEad  29.3698 0.837521 4.05723
LeftShoulder1  1.34729 -1.57243 -21.5052
LeftArm  -5.68252 10.4888 -52.5655
LeftForeArm  29.9342 1.50434 -11.8028
LeftHand  -0.0479761 4.59306 3.88436
RightShoulder  1.12221 -0.100511 28.986
RightArm  -25.209 -8.17063 45.488
RightForeArm  65.1003 -4.78534 4.15097
RightHand  0.0690371 -6.01186 -15.8209
LeftUpLeg  -18.7898 0.29611 8.78991
LeftLeg  61.7735 1.67807 3.99005
LeftFoot  2.09664 1.07554 -9.2241
LeftToes  3.79492e-011 -8.60219e-011 1.56273e-011
43
root  44.484 39.1533 -112.379 176.72 -55.6101 -171.489
RightUpLeg  -13.2702 -2.14239 6.80673
RightLeg  19.5519 -1.45961 0.910139
RightFoot  -10.6588 -0.0675321 -0.775486
RightToes  1.21801e-010 1.2921e-014 -6.02303e-014
Spine  -4.57673 -2.60065 8.60003
Spine1  10.2471 -3.12547 2.10437
HEad  29.8219 0.4434 4.3608
LeftShoulder1  1.27034 -1.28725 -21.5458
LeftArm  -5.75302 11.4489 -52.0829
LeftForeArm  29.9406 1.88501 -11.8282
LeftHand  -0.0379955 4.96428 4.11774
RightShoulder  1.25586 0.341484 28.4185
RightArm  -25.1457 -6.31473 47.0426
RightForeArm  64.2875 -1.09038 4.70139
RightHand  0.0456945 -5.82836 -16.0799
LeftUpLeg  -22.6112 0.154634 7.42606
LeftLeg  59.1291 3.57422 6.98291
LeftFoot  -1.55224 0.62884 -7.22942
LeftToes  3.79492e-011 -8.60219e-011 1.56273e-011
44
root  43.3976 39.1856 -113.199 177.911 -54.4209 -173.024
RightUpLeg  -11.0295 -2.99741 6.20488
RightLeg  19.8649 0.191086 1.21833
RightFoot  -12.414 -0.10097 -1.81747
RightToes  1.21801e-010 1.2921e-014 -6.02303e-014
Spine  -4.53779 -2.0399 8.25583
Spine1  10.0375 -2.51455 1.47079
HEad  30.338 0.153144 4.32982
LeftShoulder1  1.21108 -1.03977 -21.7694
LeftArm  -5.62257 12.1768 -51.541
LeftForeArm  30.3471 2.67799 -11.8987
LeftHand  -0.0312307 5.18359 4.05025
RightShoulder  1.35707 0.717224 27.7141
RightArm  -23.9064 -4.29948 48.0722
RightForeArm  61.966 1.84722 5.68255
RightHand  -0.0581321 -5.0656 -16.0075
LeftUpLeg  -25.8601 0.0210485 6.36438
LeftLeg  54.2784 5.20604 8.20385
LeftFoot  -4.26485 0.420789 -6.38824
LeftToes  3.79492e-011 -8.60219e-011 1.56273e-011
